<?xml version="1.0" standalone="no"?>
<!DOCTYPE svg PUBLIC "-//W3C//DTD SVG 20010904//EN"
 "http://www.w3.org/TR/2001/REC-SVG-20010904/DTD/svg10.dtd">
<svg version="1.0" xmlns="http://www.w3.org/2000/svg"
 width="120.000000pt" height="120.000000pt" viewBox="0 0 120.000000 120.000000"
 preserveAspectRatio="xMidYMid meet">
<metadata>
Created by potrace 1.14, written by Peter Selinger 2001-2017
</metadata>
<g transform="translate(0.000000,120.000000) scale(0.100000,-0.100000)"
fill="#000000" stroke="none">
<path d="M755 974 c-5 -1 -22 -5 -37 -8 -37 -8 -98 -63 -114 -103 -8 -18 -14
-51 -14 -74 l0 -42 -37 7 c-21 4 -47 9 -59 11 -66 10 -184 77 -244 139 l-34
36 -13 -22 c-28 -51 -10 -147 36 -195 18 -19 19 -23 6 -23 -9 0 -25 5 -36 10
-17 9 -19 7 -19 -16 0 -41 44 -107 84 -129 44 -24 46 -35 5 -35 l-30 0 17 -29
c23 -39 67 -71 118 -87 l41 -12 -66 -31 c-44 -21 -89 -34 -135 -38 l-69 -7 60
-27 c149 -68 356 -60 485 19 142 88 239 243 256 412 5 58 10 69 45 104 22 21
37 41 35 44 -3 2 -19 -1 -37 -7 -47 -16 -53 -14 -26 12 22 20 47 58 47 70 0 3
-23 -4 -50 -16 -45 -19 -53 -20 -73 -7 -53 34 -113 52 -142 44z"/>
</g>
</svg>
